<svg width="271" height="64" viewBox="0 0 271 64" fill="none" xmlns="http://www.w3.org/2000/svg">
<path d="M23.7926 14.5843C22.5942 14.2063 21.3227 14.0001 19.9997 14.0001C16.1382 14.0001 12.6847 15.7441 10.3823 18.4845L16.3143 23.4758L23.7926 14.5843Z" fill="#1967D2"/>
<path d="M10.3823 18.4846C8.54816 20.6667 7.43994 23.4845 7.43994 26.56C7.43994 28.9225 7.91244 30.8382 8.68131 32.5521L16.3143 23.4759L10.3823 18.4846Z" fill="#EA4335"/>
<path d="M19.9999 21.7534C22.6545 21.7534 24.8022 23.9054 24.8022 26.5557C24.8022 27.7369 24.3769 28.8194 23.6682 29.657C23.6682 29.657 27.4653 25.1425 31.1465 20.7698C29.6259 17.8446 26.9885 15.5938 23.7971 14.5844L16.3145 23.4759C17.195 22.4235 18.518 21.7534 19.9999 21.7534Z" fill="#1A73E8"/>
<path d="M20 31.3623C17.3455 31.3623 15.1978 29.2103 15.1978 26.56C15.1978 25.3874 15.6187 24.3092 16.3189 23.4759L8.68164 32.5478C9.98744 35.4429 12.1566 37.7625 14.3902 40.6876L23.6683 29.657C22.7878 30.7008 21.4691 31.3623 20 31.3623Z" fill="#FBBC04"/>
<path d="M23.4835 43.7031C27.6758 37.1526 32.5597 34.1759 32.5597 26.5601C32.5597 24.4725 32.0486 22.5052 31.1465 20.7742L14.3901 40.692C15.0989 41.6241 15.8162 42.612 16.5164 43.7031C19.0635 47.6377 18.3591 50.0001 19.9999 50.0001C21.6451 50.0001 20.9363 47.6377 23.4835 43.7031Z" fill="#34A853"/>
<path d="M61.262 40.352C59.766 40.352 58.3873 39.9927 57.126 39.274C55.8647 38.5553 54.86 37.5727 54.112 36.326C53.3787 35.0647 53.012 33.664 53.012 32.124C53.012 30.584 53.3787 29.1907 54.112 27.944C54.86 26.6827 55.8647 25.6927 57.126 24.974C58.3873 24.2553 59.766 23.896 61.262 23.896C62.45 23.896 63.5573 24.1087 64.584 24.534C65.6107 24.9593 66.4687 25.5533 67.158 26.316L65.442 28.032C64.9287 27.46 64.3127 27.02 63.594 26.712C62.89 26.404 62.1053 26.25 61.24 26.25C60.228 26.25 59.282 26.492 58.402 26.976C57.522 27.46 56.818 28.1493 56.29 29.044C55.762 29.9387 55.498 30.9653 55.498 32.124C55.498 33.2827 55.762 34.3093 56.29 35.204C56.818 36.0987 57.522 36.788 58.402 37.272C59.282 37.756 60.2353 37.998 61.262 37.998C62.2007 37.998 62.9853 37.8587 63.616 37.58C64.2467 37.3013 64.8113 36.9273 65.31 36.458C65.6327 36.1353 65.904 35.732 66.124 35.248C66.3587 34.764 66.5127 34.236 66.586 33.664H61.24V31.464H68.918C68.9913 31.8747 69.028 32.3 69.028 32.74C69.028 33.7373 68.874 34.698 68.566 35.622C68.258 36.5313 67.7667 37.3233 67.092 37.998C65.6107 39.5673 63.6673 40.352 61.262 40.352ZM76.3269 40.352C75.1976 40.352 74.1856 40.0953 73.2909 39.582C72.3963 39.054 71.6996 38.3353 71.2009 37.426C70.7023 36.5167 70.4529 35.5047 70.4529 34.39C70.4529 33.2753 70.7023 32.2633 71.2009 31.354C71.6996 30.4447 72.3963 29.7333 73.2909 29.22C74.1856 28.692 75.1976 28.428 76.3269 28.428C77.4563 28.428 78.4683 28.692 79.3629 29.22C80.2576 29.748 80.9543 30.4667 81.4529 31.376C81.9516 32.2853 82.2009 33.29 82.2009 34.39C82.2009 35.5047 81.9516 36.5167 81.4529 37.426C80.9543 38.3353 80.2576 39.054 79.3629 39.582C78.4683 40.0953 77.4563 40.352 76.3269 40.352ZM76.3269 38.13C76.9429 38.13 77.5149 37.9833 78.0429 37.69C78.5709 37.382 78.9889 36.9493 79.2969 36.392C79.6196 35.82 79.7809 35.1527 79.7809 34.39C79.7809 33.6273 79.6196 32.9673 79.2969 32.41C78.9889 31.8527 78.5709 31.4273 78.0429 31.134C77.5149 30.826 76.9429 30.672 76.3269 30.672C75.7109 30.672 75.1389 30.826 74.6109 31.134C74.0829 31.4273 73.6576 31.8527 73.3349 32.41C73.0269 32.9673 72.8729 33.6273 72.8729 34.39C72.8729 35.1527 73.0269 35.82 73.3349 36.392C73.6576 36.9493 74.0829 37.382 74.6109 37.69C75.1389 37.9833 75.7109 38.13 76.3269 38.13ZM89.3902 40.352C88.2609 40.352 87.2489 40.0953 86.3542 39.582C85.4596 39.054 84.7629 38.3353 84.2642 37.426C83.7656 36.5167 83.5162 35.5047 83.5162 34.39C83.5162 33.2753 83.7656 32.2633 84.2642 31.354C84.7629 30.4447 85.4596 29.7333 86.3542 29.22C87.2489 28.692 88.2609 28.428 89.3902 28.428C90.5196 28.428 91.5316 28.692 92.4262 29.22C93.3209 29.748 94.0176 30.4667 94.5162 31.376C95.0149 32.2853 95.2642 33.29 95.2642 34.39C95.2642 35.5047 95.0149 36.5167 94.5162 37.426C94.0176 38.3353 93.3209 39.054 92.4262 39.582C91.5316 40.0953 90.5196 40.352 89.3902 40.352ZM89.3902 38.13C90.0062 38.13 90.5782 37.9833 91.1062 37.69C91.6342 37.382 92.0522 36.9493 92.3602 36.392C92.6829 35.82 92.8442 35.1527 92.8442 34.39C92.8442 33.6273 92.6829 32.9673 92.3602 32.41C92.0522 31.8527 91.6342 31.4273 91.1062 31.134C90.5782 30.826 90.0062 30.672 89.3902 30.672C88.7742 30.672 88.2022 30.826 87.6742 31.134C87.1462 31.4273 86.7209 31.8527 86.3982 32.41C86.0902 32.9673 85.9362 33.6273 85.9362 34.39C85.9362 35.1527 86.0902 35.82 86.3982 36.392C86.7209 36.9493 87.1462 37.382 87.6742 37.69C88.2022 37.9833 88.7742 38.13 89.3902 38.13ZM102.255 45.104C100.877 45.104 99.7328 44.7887 98.8235 44.158C97.9288 43.5273 97.3275 42.7793 97.0195 41.914L99.2855 40.968C99.5202 41.5547 99.8942 42.024 100.407 42.376C100.935 42.7427 101.551 42.926 102.255 42.926C103.282 42.926 104.081 42.618 104.653 42.002C105.24 41.4007 105.533 40.55 105.533 39.45V38.416H105.401C105.035 38.944 104.543 39.362 103.927 39.67C103.326 39.9633 102.629 40.11 101.837 40.11C100.899 40.11 100.026 39.868 99.2195 39.384C98.4128 38.9 97.7675 38.218 97.2835 37.338C96.8142 36.4433 96.5795 35.424 96.5795 34.28C96.5795 33.136 96.8142 32.124 97.2835 31.244C97.7675 30.3493 98.4128 29.66 99.2195 29.176C100.026 28.6773 100.899 28.428 101.837 28.428C102.615 28.428 103.311 28.582 103.927 28.89C104.543 29.198 105.035 29.616 105.401 30.144H105.533V28.78H107.843V39.384C107.843 40.6013 107.609 41.6353 107.139 42.486C106.67 43.3513 106.01 44.004 105.159 44.444C104.323 44.884 103.355 45.104 102.255 45.104ZM102.277 37.91C102.864 37.91 103.407 37.7707 103.905 37.492C104.404 37.1987 104.8 36.7807 105.093 36.238C105.387 35.6807 105.533 35.028 105.533 34.28C105.533 33.136 105.218 32.2487 104.587 31.618C103.971 30.9727 103.201 30.65 102.277 30.65C101.676 30.65 101.126 30.7967 100.627 31.09C100.129 31.3687 99.7328 31.7793 99.4395 32.322C99.1462 32.8647 98.9995 33.5173 98.9995 34.28C98.9995 35.0427 99.1462 35.6953 99.4395 36.238C99.7328 36.7807 100.129 37.1987 100.627 37.492C101.126 37.7707 101.676 37.91 102.277 37.91ZM110.388 24.248H112.808V40H110.388V24.248ZM120.37 40.352C119.27 40.352 118.28 40.0953 117.4 39.582C116.535 39.0687 115.853 38.3647 115.354 37.47C114.87 36.5607 114.628 35.5413 114.628 34.412C114.628 33.3413 114.863 32.3513 115.332 31.442C115.816 30.518 116.483 29.7847 117.334 29.242C118.185 28.6993 119.153 28.428 120.238 28.428C121.367 28.428 122.343 28.6773 123.164 29.176C124 29.6747 124.631 30.3567 125.056 31.222C125.496 32.0873 125.716 33.0627 125.716 34.148C125.716 34.3533 125.694 34.61 125.65 34.918H117.048C117.136 35.9593 117.503 36.766 118.148 37.338C118.808 37.8953 119.571 38.174 120.436 38.174C121.125 38.174 121.719 38.02 122.218 37.712C122.731 37.3893 123.142 36.9567 123.45 36.414L125.496 37.382C124.968 38.306 124.279 39.032 123.428 39.56C122.577 40.088 121.558 40.352 120.37 40.352ZM123.252 33.07C123.223 32.674 123.098 32.2853 122.878 31.904C122.658 31.508 122.321 31.178 121.866 30.914C121.426 30.65 120.883 30.518 120.238 30.518C119.461 30.518 118.801 30.7527 118.258 31.222C117.73 31.6767 117.363 32.2927 117.158 33.07H123.252ZM132.785 24.248H135.491L140.507 37.162H140.595L145.611 24.248H148.317V40H146.469V29.99L146.557 26.998H146.469L141.321 40H139.781L134.633 26.998H134.545L134.633 29.99V40H132.785V24.248ZM154.431 40.352C153.61 40.352 152.877 40.1907 152.231 39.868C151.586 39.5453 151.087 39.1053 150.735 38.548C150.383 37.976 150.207 37.3307 150.207 36.612C150.207 35.424 150.655 34.5 151.549 33.84C152.444 33.1653 153.573 32.828 154.937 32.828C155.612 32.828 156.235 32.9013 156.807 33.048C157.394 33.1947 157.841 33.3633 158.149 33.554V32.872C158.149 32.036 157.856 31.3687 157.269 30.87C156.683 30.3567 155.942 30.1 155.047 30.1C154.417 30.1 153.837 30.2393 153.309 30.518C152.781 30.782 152.363 31.156 152.055 31.64L150.647 30.584C151.087 29.9093 151.689 29.3813 152.451 29C153.229 28.6187 154.087 28.428 155.025 28.428C156.551 28.428 157.746 28.8313 158.611 29.638C159.491 30.43 159.931 31.5153 159.931 32.894V40H158.149V38.394H158.061C157.739 38.9367 157.255 39.3987 156.609 39.78C155.964 40.1613 155.238 40.352 154.431 40.352ZM154.607 38.702C155.238 38.702 155.825 38.5407 156.367 38.218C156.91 37.8953 157.343 37.4627 157.665 36.92C157.988 36.3773 158.149 35.7833 158.149 35.138C157.797 34.9033 157.365 34.7127 156.851 34.566C156.338 34.4193 155.795 34.346 155.223 34.346C154.197 34.346 153.419 34.5587 152.891 34.984C152.378 35.4093 152.121 35.9593 152.121 36.634C152.121 37.25 152.356 37.7487 152.825 38.13C153.295 38.5113 153.889 38.702 154.607 38.702ZM162.145 28.78H163.927V30.452H164.015C164.352 29.88 164.858 29.4033 165.533 29.022C166.222 28.626 166.992 28.428 167.843 28.428C168.84 28.428 169.75 28.6847 170.571 29.198C171.392 29.7113 172.038 30.4227 172.507 31.332C172.976 32.2413 173.211 33.2607 173.211 34.39C173.211 35.534 172.976 36.5607 172.507 37.47C172.038 38.3647 171.392 39.0687 170.571 39.582C169.75 40.0953 168.84 40.352 167.843 40.352C166.992 40.352 166.222 40.1613 165.533 39.78C164.858 39.384 164.352 38.9073 164.015 38.35H163.927L164.015 39.89V44.752H162.145V28.78ZM167.623 38.658C168.268 38.658 168.877 38.482 169.449 38.13C170.021 37.778 170.476 37.2793 170.813 36.634C171.165 35.974 171.341 35.226 171.341 34.39C171.341 33.554 171.165 32.8133 170.813 32.168C170.476 31.508 170.021 31.002 169.449 30.65C168.877 30.298 168.268 30.122 167.623 30.122C166.978 30.122 166.369 30.298 165.797 30.65C165.225 31.002 164.77 31.5007 164.433 32.146C164.096 32.7913 163.927 33.5393 163.927 34.39C163.927 35.2407 164.096 35.9887 164.433 36.634C164.77 37.2793 165.225 37.778 165.797 38.13C166.369 38.482 166.978 38.658 167.623 38.658ZM178.89 40.352C177.687 40.352 176.683 40.0733 175.876 39.516C175.069 38.944 174.497 38.218 174.16 37.338L175.832 36.59C176.111 37.2647 176.521 37.7853 177.064 38.152C177.621 38.5187 178.23 38.702 178.89 38.702C179.594 38.702 180.195 38.5627 180.694 38.284C181.193 37.9907 181.442 37.58 181.442 37.052C181.442 36.5827 181.244 36.2087 180.848 35.93C180.452 35.6367 179.829 35.3873 178.978 35.182L177.614 34.83C176.719 34.61 175.986 34.236 175.414 33.708C174.842 33.18 174.556 32.498 174.556 31.662C174.556 31.0167 174.747 30.452 175.128 29.968C175.524 29.4693 176.045 29.088 176.69 28.824C177.335 28.56 178.032 28.428 178.78 28.428C179.763 28.428 180.635 28.6407 181.398 29.066C182.175 29.4913 182.725 30.0853 183.048 30.848L181.42 31.596C180.921 30.5987 180.034 30.1 178.758 30.1C178.142 30.1 177.599 30.2467 177.13 30.54C176.675 30.8187 176.448 31.178 176.448 31.618C176.448 32.0287 176.609 32.366 176.932 32.63C177.255 32.8793 177.739 33.0847 178.384 33.246L180.012 33.664C181.112 33.9427 181.941 34.3607 182.498 34.918C183.055 35.4607 183.334 36.128 183.334 36.92C183.334 37.6093 183.136 38.218 182.74 38.746C182.344 39.2593 181.809 39.6553 181.134 39.934C180.459 40.2127 179.711 40.352 178.89 40.352ZM190.26 24.248H195.562C196.442 24.248 197.256 24.446 198.004 24.842C198.752 25.238 199.346 25.7953 199.786 26.514C200.24 27.218 200.468 28.0173 200.468 28.912C200.468 29.8067 200.24 30.6133 199.786 31.332C199.346 32.036 198.752 32.586 198.004 32.982C197.256 33.378 196.442 33.576 195.562 33.576H192.108V40H190.26V24.248ZM195.606 31.794C196.192 31.794 196.706 31.6547 197.146 31.376C197.6 31.0973 197.952 30.738 198.202 30.298C198.451 29.858 198.576 29.396 198.576 28.912C198.576 28.428 198.451 27.966 198.202 27.526C197.952 27.086 197.6 26.7267 197.146 26.448C196.706 26.1693 196.192 26.03 195.606 26.03H192.108V31.794H195.606ZM202.369 24.248H204.239V40H202.369V24.248ZM210.188 40.352C209.367 40.352 208.633 40.1907 207.988 39.868C207.343 39.5453 206.844 39.1053 206.492 38.548C206.14 37.976 205.964 37.3307 205.964 36.612C205.964 35.424 206.411 34.5 207.306 33.84C208.201 33.1653 209.33 32.828 210.694 32.828C211.369 32.828 211.992 32.9013 212.564 33.048C213.151 33.1947 213.598 33.3633 213.906 33.554V32.872C213.906 32.036 213.613 31.3687 213.026 30.87C212.439 30.3567 211.699 30.1 210.804 30.1C210.173 30.1 209.594 30.2393 209.066 30.518C208.538 30.782 208.12 31.156 207.812 31.64L206.404 30.584C206.844 29.9093 207.445 29.3813 208.208 29C208.985 28.6187 209.843 28.428 210.782 28.428C212.307 28.428 213.503 28.8313 214.368 29.638C215.248 30.43 215.688 31.5153 215.688 32.894V40H213.906V38.394H213.818C213.495 38.9367 213.011 39.3987 212.366 39.78C211.721 40.1613 210.995 40.352 210.188 40.352ZM210.364 38.702C210.995 38.702 211.581 38.5407 212.124 38.218C212.667 37.8953 213.099 37.4627 213.422 36.92C213.745 36.3773 213.906 35.7833 213.906 35.138C213.554 34.9033 213.121 34.7127 212.608 34.566C212.095 34.4193 211.552 34.346 210.98 34.346C209.953 34.346 209.176 34.5587 208.648 34.984C208.135 35.4093 207.878 35.9593 207.878 36.634C207.878 37.25 208.113 37.7487 208.582 38.13C209.051 38.5113 209.645 38.702 210.364 38.702ZM222.087 40.176C221.632 40.176 221.207 40.1027 220.811 39.956C220.429 39.8093 220.107 39.6113 219.843 39.362C219.549 39.0833 219.329 38.7607 219.183 38.394C219.036 38.0273 218.963 37.58 218.963 37.052V30.474H217.005V28.78H218.963V25.612H220.833V28.78H225.915V27.57C225.915 26.866 226.076 26.25 226.399 25.722C226.721 25.194 227.154 24.7907 227.697 24.512C228.239 24.2187 228.841 24.072 229.501 24.072C230.131 24.072 230.681 24.16 231.151 24.336V26.162C230.887 26.0593 230.637 25.9787 230.403 25.92C230.168 25.8467 229.889 25.81 229.567 25.81C229.083 25.81 228.665 25.986 228.313 26.338C227.961 26.6753 227.785 27.152 227.785 27.768V28.78H230.667V30.474H227.785V40H225.915V30.474H220.833V36.59C220.833 37.206 220.95 37.6607 221.185 37.954C221.463 38.2767 221.867 38.438 222.395 38.438C222.82 38.438 223.231 38.3133 223.627 38.064V39.89C223.407 39.9927 223.179 40.066 222.945 40.11C222.725 40.154 222.439 40.176 222.087 40.176ZM237.147 40.352C236.047 40.352 235.057 40.088 234.177 39.56C233.297 39.032 232.607 38.3133 232.109 37.404C231.625 36.4947 231.383 35.49 231.383 34.39C231.383 33.29 231.625 32.2853 232.109 31.376C232.607 30.4667 233.297 29.748 234.177 29.22C235.057 28.692 236.047 28.428 237.147 28.428C238.247 28.428 239.237 28.692 240.117 29.22C240.997 29.748 241.679 30.4667 242.163 31.376C242.661 32.2853 242.911 33.29 242.911 34.39C242.911 35.49 242.661 36.4947 242.163 37.404C241.679 38.3133 240.997 39.032 240.117 39.56C239.237 40.088 238.247 40.352 237.147 40.352ZM237.147 38.658C237.836 38.658 238.474 38.4893 239.061 38.152C239.662 37.8 240.139 37.3013 240.491 36.656C240.857 36.0107 241.041 35.2553 241.041 34.39C241.041 33.5247 240.857 32.7693 240.491 32.124C240.139 31.4787 239.662 30.9873 239.061 30.65C238.474 30.298 237.836 30.122 237.147 30.122C236.457 30.122 235.812 30.298 235.211 30.65C234.609 30.9873 234.125 31.4787 233.759 32.124C233.407 32.7693 233.231 33.5247 233.231 34.39C233.231 35.2553 233.407 36.0107 233.759 36.656C234.125 37.3013 234.609 37.8 235.211 38.152C235.812 38.4893 236.457 38.658 237.147 38.658ZM244.567 28.78H246.349V30.584H246.437C246.657 29.968 247.083 29.462 247.713 29.066C248.344 28.6553 249.004 28.45 249.693 28.45C250.207 28.45 250.647 28.5233 251.013 28.67V30.694C250.544 30.4593 250.016 30.342 249.429 30.342C248.887 30.342 248.388 30.496 247.933 30.804C247.479 31.112 247.112 31.53 246.833 32.058C246.569 32.5713 246.437 33.1287 246.437 33.73V40H244.567V28.78ZM252.517 28.78H254.299V30.43H254.387C254.71 29.858 255.194 29.3813 255.839 29C256.485 28.6187 257.167 28.428 257.885 28.428C258.707 28.428 259.418 28.626 260.019 29.022C260.635 29.418 261.075 29.946 261.339 30.606C261.735 29.946 262.256 29.418 262.901 29.022C263.561 28.626 264.324 28.428 265.189 28.428C266.48 28.428 267.448 28.824 268.093 29.616C268.753 30.3933 269.083 31.4567 269.083 32.806V40H267.235V33.092C267.235 32.0507 267.023 31.2953 266.597 30.826C266.172 30.3567 265.541 30.122 264.705 30.122C264.148 30.122 263.642 30.2833 263.187 30.606C262.733 30.9287 262.373 31.3613 262.109 31.904C261.86 32.4467 261.735 33.0333 261.735 33.664V40H259.865V33.114C259.865 32.058 259.653 31.2953 259.227 30.826C258.802 30.3567 258.179 30.122 257.357 30.122C256.8 30.122 256.294 30.2907 255.839 30.628C255.385 30.9507 255.025 31.3907 254.761 31.948C254.512 32.4907 254.387 33.0773 254.387 33.708V40H252.517V28.78Z" fill="#5F6368"/>
</svg>
