<svg width="24" height="24" viewBox="0 0 24 24" fill="none" xmlns="http://www.w3.org/2000/svg">
<path d="M10.9105 17.0897H13.0898V11H10.9105V17.0897ZM12.0001 9.11957C12.3174 9.11957 12.5833 9.01228 12.7979 8.7977C13.0124 8.58311 13.1197 8.31721 13.1197 8C13.1197 7.68278 13.0124 7.41688 12.7979 7.2023C12.5833 6.98771 12.3174 6.88042 12.0001 6.88042C11.6829 6.88042 11.417 6.98771 11.2025 7.2023C10.9879 7.41688 10.8806 7.68278 10.8806 8C10.8806 8.31721 10.9879 8.58311 11.2025 8.7977C11.417 9.01228 11.6829 9.11957 12.0001 9.11957ZM12.0001 22.2033C10.5849 22.2033 9.25706 21.9356 8.01652 21.4003C6.77599 20.865 5.6969 20.1385 4.77925 19.2209C3.8616 18.3032 3.13512 17.2242 2.59982 15.9836C2.06452 14.7431 1.79688 13.4152 1.79688 12C1.79688 10.5848 2.06452 9.25691 2.59982 8.01637C3.13512 6.77584 3.8616 5.69675 4.77925 4.7791C5.6969 3.86145 6.77599 3.13497 8.01652 2.59967C9.25706 2.06437 10.5849 1.79672 12.0001 1.79672C13.4154 1.79672 14.7432 2.06437 15.9838 2.59967C17.2243 3.13497 18.3034 3.86145 19.2211 4.7791C20.1387 5.69675 20.8652 6.77584 21.4005 8.01637C21.9358 9.25691 22.2034 10.5848 22.2034 12C22.2034 13.4152 21.9358 14.7431 21.4005 15.9836C20.8652 17.2242 20.1387 18.3032 19.2211 19.2209C18.3034 20.1385 17.2243 20.865 15.9838 21.4003C14.7432 21.9356 13.4154 22.2033 12.0001 22.2033ZM12.0001 19.9282C14.2175 19.9282 16.0933 19.1612 17.6273 17.6272C19.1614 16.0931 19.9284 14.2174 19.9284 12C19.9284 9.78261 19.1614 7.90689 17.6273 6.37282C16.0933 4.83877 14.2175 4.07175 12.0001 4.07175C9.78277 4.07175 7.90704 4.83877 6.37297 6.37282C4.83892 7.90689 4.0719 9.78261 4.0719 12C4.0719 14.2174 4.83892 16.0931 6.37297 17.6272C7.90704 19.1612 9.78277 19.9282 12.0001 19.9282Z" fill="#3C4043"/>
</svg>
